<svg width="1440" height="164" viewBox="0 0 1440 164" fill="none" xmlns="http://www.w3.org/2000/svg">
<g filter="url(#filter0_d_5_58)">
<path fill-rule="evenodd" clip-rule="evenodd" d="M91.9972 69.5C100.515 62.9161 106 52.5986 106 41C106 21.1177 89.8822 5 70 5C51.0848 5 35.5769 19.5879 34.113 38.1269C30.2196 35.5202 25.5373 34 20.5 34C6.96902 34 -4 44.969 -4 58.5C-4 62.4556 -3.06257 66.1923 -1.39774 69.5H-15L-23 161H1440V74.5L1427 74.3264C1426.99 73.2883 1426.94 72.2626 1426.83 71.2516C1430.69 73.0164 1434.98 74 1439.5 74C1456.34 74 1470 60.3447 1470 43.5C1470 26.6553 1456.34 13 1439.5 13C1422.66 13 1409 26.6553 1409 43.5C1409 44.5973 1409.06 45.6811 1409.17 46.7484C1405.31 44.9836 1401.02 44 1396.5 44C1379.99 44 1366.54 57.1246 1366.02 73.5119L1252.8 71.9998C1253.58 69.3018 1254 66.4498 1254 63.5C1254 46.6553 1240.34 33 1223.5 33C1216.76 33 1210.53 35.1856 1205.48 38.8866C1202.85 24.7232 1190.43 14 1175.5 14C1158.66 14 1145 27.6553 1145 44.5C1145 46.4254 1145.18 48.3091 1145.52 50.1356C1141.4 50.4579 1137.44 51.3474 1133.72 52.726C1129.95 40.158 1118.29 31 1104.5 31C1088.32 31 1075.08 43.5989 1074.06 59.5215C1067.36 55.386 1059.46 53 1051 53C1037.75 53 1025.87 58.8554 1017.8 68.1194C1016.4 57.8844 1007.62 50 997 50C985.402 50 976 59.402 976 71C976 82.598 985.402 92 997 92C1000.91 92 1004.58 90.9295 1007.71 89.0654C1007.52 90.1302 1007.36 91.2084 1007.25 92.2985L951 101.5L840.598 106.372C847.66 99.0068 852 89.0102 852 78C852 55.3563 833.644 37 811 37C792.875 37 777.498 48.7605 772.082 65.0667C771.393 65.0225 770.699 65 770 65C752.327 65 738 79.3269 738 97C738 101.927 739.114 106.594 741.103 110.763L537.266 119.759C540.268 114.885 542 109.145 542 103C542 100.948 541.807 98.9402 541.438 96.9952C541.625 96.9984 541.812 97 542 97C551.634 97 560.273 92.743 566.139 86.0075C567.655 102.27 581.341 115 598 115C615.673 115 630 100.673 630 83C630 65.3269 615.673 51 598 51C588.366 51 579.727 55.257 573.861 61.9925C572.345 45.7297 558.659 33 542 33C524.327 33 510 47.3269 510 65C510 67.0525 510.193 69.0598 510.562 71.0048C510.375 71.0016 510.188 71 510 71C494.521 71 481.609 81.9906 478.641 96.5939C474.764 94.9246 470.49 94 466 94C457.6 94 449.957 97.2361 444.248 102.53C439.911 89.9985 428.006 81 414 81C398.695 81 385.9 91.7444 382.745 106.102L329.767 92.8877C337.734 86.376 342.859 76.5183 342.997 65.4594C348.126 68.9559 354.324 71 361 71C378.673 71 393 56.6731 393 39C393 21.3269 378.673 7 361 7C344.144 7 330.331 20.0334 329.091 36.5725C322.992 31.8265 315.326 29 307 29C297.388 29 288.656 32.7671 282.199 38.9055C277.345 30.5884 268.325 25 258 25C242.536 25 230 37.536 230 53C230 59.1694 231.995 64.8727 235.376 69.5H201.676C201.889 68.0309 202 66.5284 202 65C202 47.8792 188.121 34 171 34C153.879 34 140 47.8792 140 65C140 66.5284 140.111 68.0309 140.324 69.5H91.9972ZM48.0028 69.5C46.5406 68.3698 45.1677 67.1295 43.8967 65.7916C43.4967 67.0763 42.9939 68.3156 42.3977 69.5H48.0028ZM270.442 78.0906L273.793 78.9263C273.484 78.1916 273.199 77.4445 272.939 76.686C272.134 77.1951 271.3 77.6642 270.442 78.0906ZM1190.32 71.1653L1193.98 71.2143C1193.8 70.5233 1193.65 69.8226 1193.52 69.1134C1192.5 69.8611 1191.43 70.5469 1190.32 71.1653Z" fill="url(#paint0_linear_5_58)"/>
</g>
<defs>
<filter id="filter0_d_5_58" x="-23" y="0" width="1501" height="164" filterUnits="userSpaceOnUse" color-interpolation-filters="sRGB">
<feFlood flood-opacity="0" result="BackgroundImageFix"/>
<feColorMatrix in="SourceAlpha" type="matrix" values="0 0 0 0 0 0 0 0 0 0 0 0 0 0 0 0 0 0 127 0" result="hardAlpha"/>
<feOffset dx="4" dy="-1"/>
<feGaussianBlur stdDeviation="2"/>
<feComposite in2="hardAlpha" operator="out"/>
<feColorMatrix type="matrix" values="0 0 0 0 0 0 0 0 0 0 0 0 0 0 0 0 0 0 0.17 0"/>
<feBlend mode="normal" in2="BackgroundImageFix" result="effect1_dropShadow_5_58"/>
<feBlend mode="normal" in="SourceGraphic" in2="effect1_dropShadow_5_58" result="shape"/>
</filter>
<linearGradient id="paint0_linear_5_58" x1="685" y1="83" x2="685" y2="294" gradientUnits="userSpaceOnUse">
<stop stop-color="#F3F3F3"/>
<stop offset="1" stop-color="#CDCDCD"/>
</linearGradient>
</defs>
</svg>
