<svg width="1440" height="201" viewBox="0 0 1440 201" fill="none" xmlns="http://www.w3.org/2000/svg">
<g filter="url(#filter0_d_5_29)">
<path fill-rule="evenodd" clip-rule="evenodd" d="M1351.95 79.527C1351.98 78.689 1352 77.8466 1352 77C1352 43.8629 1325.14 17 1292 17C1258.93 17 1232.11 43.753 1232 76.7964C1225.33 73.1029 1217.66 71 1209.5 71C1183.82 71 1163 91.8188 1163 117.5C1163 119.711 1163.15 121.886 1163.45 124.014C1163.14 124.005 1162.82 124 1162.5 124C1149.71 124 1138.7 131.625 1133.76 142.578C1128.62 132.164 1117.9 125 1105.5 125C1095.82 125 1087.16 129.368 1081.38 136.241C1078.48 121.842 1065.75 111 1050.5 111C1039.79 111 1030.32 116.35 1024.63 124.524C1021.42 96.6465 997.738 75 969 75C946.275 75 926.712 88.5356 917.933 107.984C916.626 83.4729 896.337 64 871.5 64C851.745 64 834.867 76.3192 828.13 93.6945C822.603 88.901 815.39 86 807.5 86C793.417 86 781.493 95.2414 777.461 107.991C770.785 98.3299 759.632 92 747 92C740.18 92 733.79 93.8455 728.304 97.0643C723.746 66.4691 697.364 43 665.5 43C630.986 43 602.903 70.5356 602.021 104.837C595.236 96.9757 585.199 92 574 92C553.565 92 537 108.565 537 129C537 149.435 553.565 166 574 166C591.532 166 606.215 153.807 610.033 137.438C620.893 156.865 641.662 170 665.5 170C685.263 170 702.917 160.972 714.563 146.815C720.857 158.251 733.024 166 747 166C764.558 166 779.26 153.77 783.051 137.363C788.827 144.464 797.634 149 807.5 149C817.86 149 827.052 143.998 832.793 136.278C841.13 148.771 855.354 157 871.5 157C889.627 157 905.332 146.628 913.002 131.494C913.267 162.195 938.237 187 969 187C992.258 187 1012.2 172.822 1020.67 152.637C1024.89 165.061 1036.65 174 1050.5 174C1060.18 174 1068.84 169.632 1074.62 162.759C1077.52 177.158 1090.25 188 1105.5 188C1118.29 188 1129.3 180.375 1134.24 169.422C1139.38 179.836 1150.1 187 1162.5 187C1177.96 187 1190.82 175.861 1193.49 161.171C1198.48 163.001 1203.87 164 1209.5 164C1232.77 164 1252.05 146.909 1255.46 124.596C1265.58 132.375 1278.25 137 1292 137C1313.33 137 1332.05 125.874 1342.69 109.109C1345.73 123.333 1358.37 134 1373.5 134C1388.39 134 1400.87 123.665 1404.16 109.776C1409.79 118.343 1419.48 124 1430.5 124C1447.9 124 1462 109.897 1462 92.5C1462 75.103 1447.9 61 1430.5 61C1415.61 61 1403.13 71.3351 1399.84 85.2244C1394.21 76.6567 1384.52 71 1373.5 71C1365.16 71 1357.58 74.2389 1351.95 79.527ZM274.937 143.574C264.024 160.098 245.285 171 224 171C190.311 171 163 143.689 163 110C163 109.221 163.015 108.446 163.044 107.675C155.17 116.467 143.731 122 131 122C120.248 122 110.417 118.054 102.878 111.53C96.9255 124.742 83.1024 134 67 134C51.3885 134 37.9195 125.298 31.6884 112.727C26.2262 118.441 18.5287 122 10 122C-6.56854 122 -20 108.569 -20 92C-20 75.4315 -6.56854 62 10 62C20.5332 62 29.7986 67.4285 35.151 75.6404C42.215 66.1771 53.8471 60 67 60C75.4766 60 83.3215 62.5656 89.7192 66.9229C94.9382 49.0538 111.445 36 131 36C153.494 36 171.953 53.2715 173.841 75.2762C184.854 59.3978 203.213 49 224 49C251.655 49 275.012 67.4033 282.492 92.6314C288.728 87.845 296.532 85 305 85C312.969 85 320.349 87.5192 326.388 91.8047C326.132 89.9063 326 87.9686 326 86C326 62.2518 345.252 43 369 43C392.748 43 412 62.2518 412 86C412 88.1782 411.838 90.3186 411.526 92.4098C428.271 94.9173 441.347 108.646 442.855 125.699C447.734 123.329 453.212 122 459 122C472.543 122 484.387 129.277 490.835 140.134C493.638 129.689 503.171 122 514.5 122C528.031 122 539 132.969 539 146.5C539 160.031 528.031 171 514.5 171C507.03 171 500.341 167.657 495.847 162.385C494.138 181.233 478.293 196 459 196C439.678 196 423.815 181.189 422.145 162.301C417.266 164.671 411.788 166 406 166C385.565 166 369 149.435 369 129C358.732 129 349.304 125.401 341.91 119.395C341.97 120.256 342 121.124 342 122C342 142.435 325.435 159 305 159C292.616 159 281.653 152.916 274.937 143.574Z" fill="white"/>
</g>
<defs>
<filter id="filter0_d_5_29" x="-26" y="0" width="1504" height="201" filterUnits="userSpaceOnUse" color-interpolation-filters="sRGB">
<feFlood flood-opacity="0" result="BackgroundImageFix"/>
<feColorMatrix in="SourceAlpha" type="matrix" values="0 0 0 0 0 0 0 0 0 0 0 0 0 0 0 0 0 0 127 0" result="hardAlpha"/>
<feOffset dx="5" dy="-6"/>
<feGaussianBlur stdDeviation="5.5"/>
<feComposite in2="hardAlpha" operator="out"/>
<feColorMatrix type="matrix" values="0 0 0 0 0 0 0 0 0 0 0 0 0 0 0 0 0 0 0.13 0"/>
<feBlend mode="normal" in2="BackgroundImageFix" result="effect1_dropShadow_5_29"/>
<feBlend mode="normal" in="SourceGraphic" in2="effect1_dropShadow_5_29" result="shape"/>
</filter>
</defs>
</svg>
